<svg width="16" height="14" viewBox="0 0 16 14" fill="none" xmlns="http://www.w3.org/2000/svg">
<path fill-rule="evenodd" clip-rule="evenodd" d="M0.687502 6.44944C0.360001 6.44944 0.0941683 6.69953 0.0941683 7.00589C0.0941682 7.31303 0.360001 7.56312 0.687501 7.56312L13.6008 7.56312L9.07167 12.3703C8.96667 12.4735 8.91417 12.6087 8.92167 12.7541C8.92917 12.9041 9.00167 13.0456 9.11917 13.1425C9.23583 13.2378 9.38917 13.2917 9.5425 13.2917C9.56417 13.2917 9.58583 13.2902 9.6075 13.2878C9.75167 13.2738 9.87417 13.2097 9.95417 13.1081L15.3517 7.37086C15.435 7.28333 15.49 7.11608 15.5 6.99651C15.4933 6.89022 15.47 6.76127 15.3533 6.64404L15.3517 6.64169L9.96167 0.912283C9.87083 0.801306 9.745 0.735657 9.60167 0.722372C9.44333 0.705178 9.28 0.758321 9.1525 0.861484C9.015 0.974806 8.93 1.14049 8.92583 1.30461C8.92333 1.39605 8.945 1.52735 9.065 1.6352L13.6008 6.44944L0.687502 6.44944Z" fill="#72787F"/>
</svg>
